<?xml version="1.0" standalone="no"?>
<!DOCTYPE svg PUBLIC "-//W3C//DTD SVG 20010904//EN"
 "http://www.w3.org/TR/2001/REC-SVG-20010904/DTD/svg10.dtd">
<svg version="1.0" xmlns="http://www.w3.org/2000/svg"
 width="3031.000000pt" height="2274.000000pt" viewBox="0 0 3031.000000 2274.000000"
 preserveAspectRatio="xMidYMid meet">
<metadata>
Created by potrace 1.13, written by Peter Selinger 2001-2015
</metadata>
<g transform="translate(0.000000,2274.000000) scale(0.100000,-0.100000)"
fill="#000000" stroke="none">
<path d="M12450 15385 l0 -355 1015 0 1015 0 0 -320 0 -320 -1620 0 -1620 0 0
-1680 0 -1680 305 0 305 0 0 1320 0 1320 1315 0 1315 0 0 -1320 0 -1320 305 0
305 0 0 1320 0 1320 1315 0 1315 0 0 -1320 0 -1320 305 0 305 0 0 1680 0 1680
-1620 0 -1620 0 0 320 0 320 980 0 980 0 0 355 0 355 -2300 0 -2300 0 0 -355z"/>
<path d="M18930 13919 l0 -472 228 -235 c125 -129 490 -500 811 -823 l583
-589 -791 0 -791 0 0 -370 0 -370 1170 0 1170 0 0 517 0 518 -777 777 -778
778 453 0 452 0 0 -230 0 -230 325 0 325 0 -2 598 -3 597 -1187 3 -1188 2 0
-471z"/>
<path d="M12490 12910 l0 -360 680 0 680 0 -2 358 -3 357 -677 3 -678 2 0
-360z"/>
<path d="M15730 12910 l0 -360 680 0 680 0 -2 358 -3 357 -677 3 -678 2 0
-360z"/>
<path d="M12490 11700 l0 -360 680 0 680 0 -2 358 -3 357 -677 3 -678 2 0
-360z"/>
<path d="M15730 11700 l0 -360 680 0 680 0 -2 358 -3 357 -677 3 -678 2 0
-360z"/>
<path d="M12490 10400 l0 -360 2300 0 2300 0 0 360 0 360 -2300 0 -2300 0 0
-360z"/>
<path d="M10610 9385 l0 -355 1301 0 c1037 0 1300 -3 1296 -12 -2 -7 -159
-242 -347 -523 -621 -923 -1002 -1497 -997 -1501 2 -2 1318 -1 2923 3 l2920 8
-522 788 c-286 434 -525 789 -529 789 -11 1 -475 -423 -475 -433 0 -5 63 -104
140 -219 77 -115 140 -213 140 -216 0 -8 -3318 1 -3326 9 -3 3 190 297 428
654 l433 648 2488 3 2487 2 0 355 0 355 -4180 0 -4180 0 0 -355z"/>
</g>
</svg>
